<?xml version="1.0" encoding="UTF-8"?>
<svg version="1.1" xmlns="http://www.w3.org/2000/svg" width="753" height="430">
<path d="M0 0 C3.35199808 1.95723763 6.65968474 3.91844114 9.86328125 6.109375 C10.51482178 6.55039551 11.1663623 6.99141602 11.83764648 7.44580078 C28.28683896 18.7244525 43.35058542 32.02869875 57.86328125 45.671875 C58.65347656 46.40792969 59.44367188 47.14398438 60.2578125 47.90234375 C84.47102176 71.18264477 102.60722669 104.79408534 103.86328125 138.671875 C104.32375898 166.59409331 94.07010681 189.18248278 79.86328125 212.671875 C79.46351074 213.33316406 79.06374023 213.99445313 78.65185547 214.67578125 C65.76219716 235.77312742 49.80483567 259.85936038 28.86328125 273.671875 C30.18330183 270.09893468 31.75849513 267.03234008 33.86328125 263.859375 C34.37890625 263.06917969 34.89453125 262.27898437 35.42578125 261.46484375 C35.90015625 260.87316406 36.37453125 260.28148437 36.86328125 259.671875 C37.52328125 259.671875 38.18328125 259.671875 38.86328125 259.671875 C39.15203125 258.95 39.44078125 258.228125 39.73828125 257.484375 C41.30078125 253.578125 41.30078125 253.578125 42.86328125 249.671875 C43.52328125 249.671875 44.18328125 249.671875 44.86328125 249.671875 C45.1365625 248.79861572 45.40984375 247.92535645 45.69140625 247.02563477 C46.79823186 243.85803821 48.09297979 240.99893743 49.61328125 238.01171875 C50.13921875 236.97080078 50.66515625 235.92988281 51.20703125 234.85742188 C52.026875 233.24963867 52.026875 233.24963867 52.86328125 231.609375 C53.94845042 229.47358803 55.03185002 227.33690082 56.11328125 225.19921875 C56.5928125 224.25812256 57.07234375 223.31702637 57.56640625 222.34741211 C59.80696591 217.72499243 61.45558346 213.00833127 62.98828125 208.109375 C63.51808594 206.43681641 63.51808594 206.43681641 64.05859375 204.73046875 C65.03290292 201.5542606 65.03290292 201.5542606 64.86328125 197.671875 C65.52328125 197.671875 66.18328125 197.671875 66.86328125 197.671875 C66.92386719 196.39570313 66.98445312 195.11953125 67.046875 193.8046875 C67.13127693 192.13540484 67.21592511 190.46613463 67.30078125 188.796875 C67.34009766 187.95511719 67.37941406 187.11335937 67.41992188 186.24609375 C67.46181641 185.44042969 67.50371094 184.63476562 67.546875 183.8046875 C67.60186157 182.68924561 67.60186157 182.68924561 67.65795898 181.55126953 C67.86328125 179.671875 67.86328125 179.671875 68.86328125 177.671875 C68.96027971 175.73629822 68.99404326 173.79737963 68.99609375 171.859375 C68.99802734 170.12300781 68.99802734 170.12300781 69 168.3515625 C68.99613281 167.13726562 68.99226562 165.92296875 68.98828125 164.671875 C68.99214844 163.45757812 68.99601563 162.24328125 69 160.9921875 C68.99871094 159.83460938 68.99742187 158.67703125 68.99609375 157.484375 C68.99440186 155.88529297 68.99440186 155.88529297 68.99267578 154.25390625 C69.03732323 151.6850536 69.03732323 151.6850536 67.86328125 149.671875 C67.78078125 148.455 67.69828125 147.238125 67.61328125 145.984375 C65.95374672 130.85615446 58.08796263 115.64588103 49.5546875 103.23828125 C47.86328125 100.671875 47.86328125 100.671875 47.86328125 98.671875 C46.87328125 98.341875 45.88328125 98.011875 44.86328125 97.671875 C42.64096688 94.10270343 40.68266988 90.46226798 38.86328125 86.671875 C38.20328125 86.671875 37.54328125 86.671875 36.86328125 86.671875 C35.52994792 84.671875 34.19661458 82.671875 32.86328125 80.671875 C32.14140625 80.135625 31.41953125 79.599375 30.67578125 79.046875 C28.49596542 77.39322161 28.22982433 76.32931234 27.86328125 73.671875 C27.20328125 73.671875 26.54328125 73.671875 25.86328125 73.671875 C24.48626827 72.38370156 23.15683952 71.04383074 21.86328125 69.671875 C21.39148438 69.20910156 20.9196875 68.74632813 20.43359375 68.26953125 C18.75046264 66.55709189 17.22216752 64.75843826 15.67578125 62.921875 C12.58108427 59.35410332 9.2697316 56.2541062 5.66015625 53.21484375 C3.96518105 51.75937592 2.3469858 50.34333228 0.86328125 48.671875 C0.86328125 48.011875 0.86328125 47.351875 0.86328125 46.671875 C-3.63545869 47.16729574 -5.70664108 48.70621131 -8.94921875 51.796875 C-9.82191406 52.61414063 -10.69460938 53.43140625 -11.59375 54.2734375 C-12.43292969 55.06492188 -13.27210938 55.85640625 -14.13671875 56.671875 C-15.46337533 57.84612847 -16.79616801 59.01350864 -18.13671875 60.171875 C-22.02903011 63.56195264 -25.86056471 67.0168872 -29.6875 70.48046875 C-31.87175598 72.43480304 -34.09027288 74.33746545 -36.32421875 76.234375 C-39.6438583 79.12824915 -42.5291235 82.23426212 -45.3671875 85.59765625 C-46.5449556 86.97821886 -47.7565212 88.33065873 -49 89.65234375 C-72.9692891 115.25481086 -80.98094865 145.89889272 -80.26416016 180.22558594 C-79.01753529 213.93699715 -60.17390006 244.84832094 -39.2578125 270.078125 C-36.43725142 273.5272089 -33.76486625 277.07492018 -31.13671875 280.671875 C-32.12671875 280.671875 -33.11671875 280.671875 -34.13671875 280.671875 C-34.13671875 280.011875 -34.13671875 279.351875 -34.13671875 278.671875 C-34.69617188 278.42050781 -35.255625 278.16914063 -35.83203125 277.91015625 C-39.47278823 275.95402072 -42.49234633 273.28383287 -45.68359375 270.67578125 C-47.51428503 269.18032802 -49.37970669 267.72720417 -51.26171875 266.296875 C-54.69275894 263.16418613 -57.40413112 259.69955997 -60.2421875 256.03125 C-62.18744113 253.50344371 -62.18744113 253.50344371 -65.01171875 250.921875 C-67.47179395 248.31708949 -68.25671058 246.11190692 -69.13671875 242.671875 C-69.79671875 242.671875 -70.45671875 242.671875 -71.13671875 242.671875 C-71.46671875 241.351875 -71.79671875 240.031875 -72.13671875 238.671875 C-72.79671875 238.671875 -73.45671875 238.671875 -74.13671875 238.671875 C-74.46671875 237.351875 -74.79671875 236.031875 -75.13671875 234.671875 C-75.79671875 234.671875 -76.45671875 234.671875 -77.13671875 234.671875 C-77.73484375 233.57875 -78.33296875 232.485625 -78.94921875 231.359375 C-80.11696994 229.29621036 -81.04705586 227.75808931 -82.76171875 226.109375 C-84.8159401 223.96177995 -85.32497955 221.48174144 -86.13671875 218.671875 C-86.79671875 218.671875 -87.45671875 218.671875 -88.13671875 218.671875 C-88.59046875 217.558125 -89.04421875 216.444375 -89.51171875 215.296875 C-90.86137861 211.70988492 -90.86137861 211.70988492 -93.13671875 209.671875 C-93.63171875 207.9084375 -93.63171875 207.9084375 -94.13671875 206.109375 C-94.46671875 204.975 -94.79671875 203.840625 -95.13671875 202.671875 C-95.79671875 202.341875 -96.45671875 202.011875 -97.13671875 201.671875 C-97.86747523 199.3578128 -98.53810133 197.02358631 -99.13671875 194.671875 C-99.79671875 194.671875 -100.45671875 194.671875 -101.13671875 194.671875 C-101.97620695 192.57015633 -102.80811531 190.46540875 -103.63671875 188.359375 C-104.3328125 186.60173828 -104.3328125 186.60173828 -105.04296875 184.80859375 C-106.13671875 181.671875 -106.13671875 181.671875 -106.13671875 178.671875 C-106.79671875 178.341875 -107.45671875 178.011875 -108.13671875 177.671875 C-108.55078125 175.44921875 -108.55078125 175.44921875 -108.76171875 172.609375 C-108.87193359 171.12824219 -108.87193359 171.12824219 -108.984375 169.6171875 C-109.17371416 165.95663045 -109.20585933 162.3363256 -109.13671875 158.671875 C-109.79671875 158.341875 -110.45671875 158.011875 -111.13671875 157.671875 C-111.0668269 153.35209515 -110.97840429 149.03316944 -110.87426758 144.71411133 C-110.84142638 143.25099594 -110.81327395 141.78776622 -110.7902832 140.32446289 C-110.59043695 127.92974312 -109.23273933 116.45965867 -104.01171875 105.046875 C-101.91079297 100.42309483 -101.91079297 100.42309483 -100.13671875 95.671875 C-99.47671875 95.671875 -98.81671875 95.671875 -98.13671875 95.671875 C-97.79640625 94.681875 -97.79640625 94.681875 -97.44921875 93.671875 C-96.0104257 90.38320518 -94.22173604 87.53448297 -92.2578125 84.5390625 C-90.98020199 82.56437591 -90.98020199 82.56437591 -90.13671875 79.671875 C-88.81737518 78.32469717 -87.48222788 76.99292032 -86.13671875 75.671875 C-84.97642501 74.11422039 -83.85207838 72.52925962 -82.76171875 70.921875 C-80.47646912 67.60949166 -78.19229056 64.30080252 -75.82421875 61.046875 C-75.35371094 60.39460938 -74.88320313 59.74234375 -74.3984375 59.0703125 C-73.98207031 58.60882813 -73.56570313 58.14734375 -73.13671875 57.671875 C-72.47671875 57.671875 -71.81671875 57.671875 -71.13671875 57.671875 C-71.13671875 57.011875 -71.13671875 56.351875 -71.13671875 55.671875 C-69.52734375 54.12109375 -69.52734375 54.12109375 -67.38671875 52.359375 C-65.00548192 50.3444823 -63.06282648 48.57720053 -61.13671875 46.109375 C-58.78137223 43.23879643 -56.15806783 41.32950589 -53.13671875 39.19921875 C-51.08523774 37.70540946 -51.08523774 37.70540946 -49.296875 35.8125 C-46.57814164 33.11834832 -43.59964271 30.81735603 -40.57421875 28.484375 C-36.30993207 25.17112815 -32.09091397 21.82593495 -27.94921875 18.359375 C-26.01913365 16.78649968 -24.08307758 15.22434097 -22.13671875 13.671875 C-21.40163086 13.0830957 -20.66654297 12.49431641 -19.90917969 11.88769531 C-17.39873452 9.89583043 -14.86469355 7.93775006 -12.32421875 5.984375 C-11.51122314 5.3349292 -10.69822754 4.6854834 -9.8605957 4.01635742 C-4.00429516 -0.41888019 -4.00429516 -0.41888019 0 0 Z " fill="#000000" transform="translate(383.13671875,23.328125)"/>
<path d="M0 0 C1.32 0 2.64 0 4 0 C11.81629711 24.68516106 -4.9314301 63.6653522 -16.1875 85.625 C-22.83031679 98.06358268 -31.36895469 109.67264929 -41.04296875 119.921875 C-42.85377396 121.84472604 -44.51468579 123.83275536 -46.1875 125.875 C-61.04179211 142.81230779 -85.4504501 160.24174168 -108 164 C-108.33 164.66 -108.66 165.32 -109 166 C-110.98 166 -112.96 166 -115 166 C-115.33 166.66 -115.66 167.32 -116 168 C-118.64 168 -121.28 168 -124 168 C-124 168.66 -124 169.32 -124 170 C-125.98 169.67 -127.96 169.34 -130 169 C-130.33 169.66 -130.66 170.32 -131 171 C-132.6396875 170.9690625 -132.6396875 170.9690625 -134.3125 170.9375 C-137.94384191 170.81455548 -137.94384191 170.81455548 -141 172 C-143.19890365 172.09526066 -145.40059737 172.13073135 -147.6015625 172.1328125 C-148.89578125 172.13410156 -150.19 172.13539063 -151.5234375 172.13671875 C-152.19600586 172.13462402 -152.86857422 172.1325293 -153.56152344 172.13037109 C-155.62442315 172.1250015 -157.68710689 172.1303336 -159.75 172.13671875 C-161.04164063 172.13542969 -162.33328125 172.13414062 -163.6640625 172.1328125 C-164.85467285 172.13168457 -166.0452832 172.13055664 -167.27197266 172.12939453 C-170 172 -170 172 -171 171 C-172.44813792 170.72803264 -173.90648026 170.50980748 -175.3671875 170.31640625 C-176.25277344 170.19330078 -177.13835937 170.07019531 -178.05078125 169.94335938 C-179.92540551 169.69055735 -181.80040646 169.4405322 -183.67578125 169.19335938 C-184.56394531 169.06896484 -185.45210937 168.94457031 -186.3671875 168.81640625 C-187.18300293 168.70756104 -187.99881836 168.59871582 -188.83935547 168.48657227 C-191 168 -191 168 -194 166 C-191.95669157 163.95669157 -187.92651352 164.32649464 -185.109375 164.01953125 C-183.44265323 163.82751568 -181.77607272 163.63427081 -180.10961914 163.43994141 C-179.23371124 163.33820618 -178.35780334 163.23647095 -177.45535278 163.13165283 C-162.24494601 161.33726785 -147.41249357 159.4403678 -133 154 C-132.29520508 153.73461426 -131.59041016 153.46922852 -130.86425781 153.19580078 C-106.95847522 143.92496762 -82.48000524 128.90418174 -69.37109375 106.17578125 C-68.69240234 105.09876953 -68.69240234 105.09876953 -68 104 C-67.34 104 -66.68 104 -66 104 C-65.71382812 103.42765625 -65.42765625 102.8553125 -65.1328125 102.265625 C-63.421875 98.84375 -61.7109375 95.421875 -60 92 C-59.34 92 -58.68 92 -58 92 C-57.6596875 91.0409375 -57.6596875 91.0409375 -57.3125 90.0625 C-55.15432074 85.0267484 -52.33677316 80.35272077 -49.6328125 75.59375 C-47.49563311 71.79994043 -45.46150976 68.11880024 -44 64 C-43.34 64 -42.68 64 -42 64 C-42.33 63.01 -42.66 62.02 -43 61 C-43.69480469 61.47308594 -44.38960937 61.94617188 -45.10546875 62.43359375 C-60.4809669 72.43059065 -77.39636474 78.54496329 -94.98974609 83.421875 C-96.74920178 83.92787343 -98.48837443 84.50334117 -100.22265625 85.08984375 C-106.56156574 87.16715164 -113.32365619 88.36088345 -120 88 C-120 88.66 -120 89.32 -120 90 C-120.7110791 90.05478516 -121.4221582 90.10957031 -122.15478516 90.16601562 C-129.91595054 90.78559917 -137.64115767 91.60646825 -145.375 92.5 C-153.81048675 93.46231046 -162.21103529 94.34439885 -170.69140625 94.7890625 C-173.02555359 94.86112133 -173.02555359 94.86112133 -175 96 C-176.35243917 96.07148199 -177.70834367 96.08399454 -179.0625 96.0625 C-179.85914063 96.05476563 -180.65578125 96.04703125 -181.4765625 96.0390625 C-183.15885417 96.01302083 -184.84114583 95.98697917 -186.5234375 95.9609375 C-187.32007813 95.95320313 -188.11671875 95.94546875 -188.9375 95.9375 C-189.66839844 95.92589844 -190.39929688 95.91429687 -191.15234375 95.90234375 C-193.09634175 95.88176172 -193.09634175 95.88176172 -195 97 C-197.56787635 97.06940206 -200.11962318 96.99721807 -202.6875 96.9375 C-205.02768893 96.83764219 -205.02768893 96.83764219 -207 98 C-208.62460351 98.163441 -210.25327236 98.28743357 -211.8828125 98.390625 C-218.06185242 98.91007508 -223.88036792 100.20310709 -229.875 101.75 C-230.9278418 102.01804443 -231.98068359 102.28608887 -233.06542969 102.56225586 C-240.63995747 104.53778724 -247.81426411 106.87662649 -255 110 C-257.22819107 110.93981639 -259.45734324 111.87735771 -261.6875 112.8125 C-262.66074219 113.23144531 -263.63398438 113.65039062 -264.63671875 114.08203125 C-267 115 -267 115 -269 115 C-269.33 115.66 -269.66 116.32 -270 117 C-270.99 117 -271.98 117 -273 117 C-273.33 117.66 -273.66 118.32 -274 119 C-275.82108055 120.01980511 -277.6831372 120.96707254 -279.5625 121.875 C-281.18091797 122.66390625 -281.18091797 122.66390625 -282.83203125 123.46875 C-283.87746094 123.9740625 -284.92289062 124.479375 -286 125 C-287.58477359 125.78877957 -289.16837406 126.57992771 -290.75 127.375 C-292.35875 128.179375 -292.35875 128.179375 -294 129 C-294.33 128.34 -294.66 127.68 -295 127 C-293.25027888 124.77061395 -291.50023195 122.54148496 -289.75 120.3125 C-289.25886719 119.68666016 -288.76773437 119.06082031 -288.26171875 118.41601562 C-287.29429088 117.18415747 -286.32492489 115.95381864 -285.35351562 114.72509766 C-284.13978717 113.17816308 -282.95100485 111.61173195 -281.765625 110.04296875 C-281.18296875 109.36878906 -280.6003125 108.69460938 -280 108 C-279.34 108 -278.68 108 -278 108 C-278 107.34 -278 106.68 -278 106 C-276.34997172 104.64613064 -274.6825613 103.31321858 -273 102 C-272.67 101.34 -272.34 100.68 -272 100 C-271.34 100 -270.68 100 -270 100 C-270 99.34 -270 98.68 -270 98 C-267.6434399 96.033679 -265.28158728 94.19098107 -262.8125 92.375 C-262.07854004 91.83230469 -261.34458008 91.28960937 -260.58837891 90.73046875 C-254.27095249 86.11003614 -247.80865656 81.86464359 -241 78 C-240.19256348 77.54093262 -239.38512695 77.08186523 -238.55322266 76.60888672 C-200.87857892 55.33355242 -164.24606461 49.1750693 -121.35546875 46.06640625 C-120.22808289 45.98365448 -119.10069702 45.90090271 -117.93914795 45.81564331 C-112.27795158 45.40076899 -106.61645546 44.99851983 -100.95263672 44.62109375 C-72.4620198 42.63432394 -47.26538904 37.52984898 -23 22 C-22.34 22 -21.68 22 -21 22 C-21 21.34 -21 20.68 -21 20 C-17.80973467 17.67980703 -14.58273331 15.65356922 -11 14 C-11 13.34 -11 12.68 -11 12 C-10.34 12 -9.68 12 -9 12 C-9 11.34 -9 10.68 -9 10 C-8.34 10 -7.68 10 -7 10 C-7 9.34 -7 8.68 -7 8 C-6.34 8 -5.68 8 -5 8 C-5 7.34 -5 6.68 -5 6 C-4.34 6 -3.68 6 -3 6 C-3 5.34 -3 4.68 -3 4 C-2.34 3.67 -1.68 3.34 -1 3 C-0.67 2.01 -0.34 1.02 0 0 Z " fill="#000000" transform="translate(711,185)"/>
<path d="M0 0 C3.99254447 3.38498335 7.90107942 6.82735276 11.75 10.375 C27.39220475 24.41529221 44.53817464 32.91593088 65.51953125 34.9921875 C66.74216675 35.11704781 66.74216675 35.11704781 67.98950195 35.24443054 C76.42077222 36.08232969 84.86743165 36.7089437 93.31591797 37.34350586 C115.70580984 39.03015238 137.85091169 41.31131403 160 45 C161.2281543 45.20238281 162.45630859 45.40476563 163.72167969 45.61328125 C203.50098156 52.27720104 232.76500768 63.65046851 261 93 C263.61016935 95.62317684 266.23380442 98.2322057 268.8671875 100.83203125 C274.47149122 106.37641068 279.92784921 111.9565863 285 118 C285.5053125 118.5775 286.010625 119.155 286.53125 119.75 C290 123.75833333 290 123.75833333 290 126 C286.10488671 125.4445349 283.68124737 124.35322214 280.5 122.0625 C277.42489384 119.85903484 274.56010754 118.29743356 271 117 C271 116.34 271 115.68 271 115 C270.28481201 114.72381836 269.56962402 114.44763672 268.83276367 114.16308594 C266.04198761 113.01723942 263.37276737 111.74139491 260.67578125 110.390625 C245.84602394 103.05187446 231.02587231 95.72997226 214.45703125 93.421875 C212 93 212 93 208.91015625 92.0546875 C203.91214423 90.5829795 198.78160254 90.02790316 193.625 89.375 C192.635 89.2409375 191.645 89.106875 190.625 88.96875 C186.00107288 88.37093357 181.50180756 87.92670952 176.8359375 87.9765625 C175.57007813 87.98429687 174.30421875 87.99203125 173 88 C172.67 87.67 172.34 87.34 172 87 C169.98035801 86.92755947 167.95832876 86.91622812 165.9375 86.9375 C164.28041016 86.95103516 164.28041016 86.95103516 162.58984375 86.96484375 C161.73519531 86.97644531 160.88054687 86.98804688 160 87 C160 86.34 160 85.68 160 85 C159.14535156 85.08378906 158.29070312 85.16757812 157.41015625 85.25390625 C155.75306641 85.40666016 155.75306641 85.40666016 154.0625 85.5625 C152.40927734 85.71912109 152.40927734 85.71912109 150.72265625 85.87890625 C149.82417969 85.91886719 148.92570313 85.95882812 148 86 C147.67 85.67 147.34 85.34 147 85 C144.83383418 84.95341579 142.66633908 84.96232454 140.5 85 C138.33366092 85.03767546 136.16616582 85.04658421 134 85 C133.67 84.67 133.34 84.34 133 84 C130.88481105 83.77141823 128.7631625 83.60231891 126.640625 83.45703125 C125.29261421 83.35611894 123.94471706 83.25367982 122.59692383 83.14990234 C121.88678131 83.09549988 121.17663879 83.04109741 120.44497681 82.98504639 C107.027525 81.93030502 94.67266632 79.93244161 81.86572266 75.59667969 C79.60587488 74.87395423 77.34008125 74.38454241 75 74 C75 73.34 75 72.68 75 72 C72.36 71.67 69.72 71.34 67 71 C67 70.34 67 69.68 67 69 C65.1128125 68.443125 65.1128125 68.443125 63.1875 67.875 C58.26595645 66.25525149 53.9516273 63.89834657 49.48046875 61.3046875 C47.13175724 59.93473103 47.13175724 59.93473103 44.86328125 59.5078125 C42.50677597 58.86557836 41.65982714 57.76276216 40 56 C38.62770075 55.0685158 37.23059663 54.17265697 35.8125 53.3125 C35.09707031 52.87550781 34.38164063 52.43851563 33.64453125 51.98828125 C33.10183594 51.66214844 32.55914062 51.33601563 32 51 C37.43677002 63.63249504 44.10500143 74.76028358 52 86 C52.86926781 87.26248535 53.7377988 88.52547846 54.60546875 89.7890625 C76.93989404 122.02054831 106.90694547 143.25015455 145.4375 151.8125 C164.4138953 155.16006757 183.78677255 155.48049528 203 156 C199.98677094 158.00881937 197.47337526 159.03927918 194 160 C193.34 159.67 192.68 159.34 192 159 C192 159.66 192 160.32 192 161 C191.30132812 161.06058594 190.60265625 161.12117187 189.8828125 161.18359375 C188.97273437 161.26738281 188.06265625 161.35117187 187.125 161.4375 C185.76761719 161.55931641 185.76761719 161.55931641 184.3828125 161.68359375 C181.98889139 161.86989285 181.98889139 161.86989285 180 163 C170.09558333 164.0882498 160.07639929 164.26464163 150.125 164.5625 C148.74348157 164.60586532 147.36197107 164.64948404 145.98046875 164.69335938 C142.65371459 164.79804744 139.3269045 164.90022495 136 165 C136 164.34 136 163.68 136 163 C134.74832031 163.04640625 133.49664062 163.0928125 132.20703125 163.140625 C126.51234305 163.13617168 121.21943213 162.01657186 115.6875 160.75 C114.66930176 160.52111084 113.65110352 160.29222168 112.60205078 160.05639648 C101.68617275 157.54883641 91.82536136 154.11032453 81.71484375 149.26953125 C78.99644454 147.93470024 78.99644454 147.93470024 76 147 C76 146.34 76 145.68 76 145 C75.29875 144.938125 74.5975 144.87625 73.875 144.8125 C70.07202373 143.73774584 67.95513247 141.57788151 65 139 C62.78412652 137.72147713 62.78412652 137.72147713 61 137 C61 136.34 61 135.68 61 135 C60.01 135 59.02 135 58 135 C56.85649555 133.92579885 55.72528431 132.83609359 54.65234375 131.69140625 C51.75409376 128.72463971 48.60071256 126.0331324 45.5 123.28125 C40.70685972 118.9075095 36.37845801 114.25324222 32.1875 109.3125 C31.43436523 108.44141602 31.43436523 108.44141602 30.66601562 107.55273438 C27 103.23830782 27 103.23830782 27 101 C26.34 101 25.68 101 25 101 C23.4921875 98.8828125 23.4921875 98.8828125 21.875 96.125 C21.33617188 95.22007812 20.79734375 94.31515625 20.2421875 93.3828125 C19 91 19 91 19 89 C18.34 88.67 17.68 88.34 17 88 C15.99438477 86.19335938 15.99438477 86.19335938 14.94140625 83.84375 C14.55533203 82.98523438 14.16925781 82.12671875 13.77148438 81.2421875 C13.37251953 80.33726562 12.97355469 79.43234375 12.5625 78.5 C12.16740234 77.62601562 11.77230469 76.75203125 11.36523438 75.8515625 C7.37401024 66.89953232 3 56.92929818 3 47 C2.34 46.67 1.68 46.34 1 46 C0.65625 44.09375 0.65625 44.09375 0.5 41.5 C0.19440341 37.227204 -0.23380166 33.00157134 -0.78222656 28.75512695 C-3.46212924 7.78979078 -3.46212924 7.78979078 0 0 Z " fill="#000000" transform="translate(50,191)"/>
<path d="M0 0 C4.25196535 0.70225225 8.16012612 2.04971558 12.171875 3.578125 C13.21622711 3.97309174 13.21622711 3.97309174 14.28167725 4.3760376 C21.88991504 7.28781143 29.36490697 10.50389012 36.84799194 13.7203064 C76.27775628 30.65711102 76.27775628 30.65711102 118 40 C118.86109375 40.11085938 119.7221875 40.22171875 120.609375 40.3359375 C134.04349835 41.8065368 147.56373195 41.00057315 161 40 C161.8359375 41.9921875 161.8359375 41.9921875 162 45 C160.55127355 47.95262747 158.59721912 50.5023589 156.625 53.125 C156.07062256 53.88200195 155.51624512 54.63900391 154.94506836 55.41894531 C153.31547384 57.6274964 151.66320297 59.81668889 150 62 C148.83791016 63.53527344 148.83791016 63.53527344 147.65234375 65.1015625 C143.51143429 70.34929449 139.00363678 75.18459404 134.3125 79.9375 C133.77761963 80.48180664 133.24273926 81.02611328 132.69165039 81.58691406 C124.20902397 90 124.20902397 90 120 90 C119.67 90.66 119.34 91.32 119 92 C116.38947632 93.29066159 113.79859827 94.48116492 111.125 95.625 C110.39152344 95.94984375 109.65804687 96.2746875 108.90234375 96.609375 C103.38783482 99 103.38783482 99 100 99 C99.67 99.66 99.34 100.32 99 101 C90.16836144 103.62231096 80.61234543 103.34129166 71.48291016 103.31567383 C69.13526898 103.31251382 66.78889283 103.3360626 64.44140625 103.36132812 C51.98249931 103.41522237 40.20010484 102.06742382 28.75 96.75 C28.08162109 96.44771484 27.41324219 96.14542969 26.72460938 95.83398438 C21.01272735 93.16843943 15.91512159 89.95693904 11 86 C10.30648438 85.44570313 9.61296875 84.89140625 8.8984375 84.3203125 C4.36944358 80.52575003 0.48989018 76.3168032 -3.3359375 71.8203125 C-4.88379879 69.90876334 -4.88379879 69.90876334 -7 69 C-7.72693904 67.02111039 -8.39816251 65.02045442 -9 63 C-9.66 63 -10.32 63 -11 63 C-18.53052114 48.07659126 -18.53052114 48.07659126 -19 39 C-19.66 38.67 -20.32 38.34 -21 38 C-21.02721176 36.10424749 -21.04649136 34.20838021 -21.0625 32.3125 C-21.07410156 31.25675781 -21.08570313 30.20101563 -21.09765625 29.11328125 C-20.93930402 24.06501207 -19.65759789 19.75178063 -18 15 C-14.22207277 16.986723 -12.36862367 18.52035947 -10.4375 22.3125 C0.29414513 41.18918862 18.92385274 59.47895938 39.95703125 65.56640625 C58.4859518 70.23196178 82.66320972 68.46476043 99.48046875 58.953125 C99.98191406 58.63859375 100.48335938 58.3240625 101 58 C97.10796378 56.81546724 93.32398961 55.8679627 89.3125 55.1875 C84.23672436 54.21079772 79.76676457 52.37337525 75.046875 50.30078125 C71.12497991 48.62643373 67.12247891 47.25290779 63.08203125 45.89453125 C61 45 61 45 60 43 C58.00491933 42.31875294 56.00361307 41.65572791 54 41 C51.29221797 39.74569938 48.64960943 38.37211917 46 37 C44.845 36.4225 43.69 35.845 42.5 35.25 C41.675 34.8375 40.85 34.425 40 34 C40 33.34 40 32.68 40 32 C39.29488281 31.7421875 38.58976562 31.484375 37.86328125 31.21875 C34.75730685 29.89669814 32.04021935 28.30252146 29.1875 26.5 C28.21167969 25.8915625 27.23585938 25.283125 26.23046875 24.65625 C25.49441406 24.1096875 24.75835937 23.563125 24 23 C24 22.34 24 21.68 24 21 C23.42507813 20.73316406 22.85015625 20.46632813 22.2578125 20.19140625 C14.86480448 16.2902515 2.65646341 7.96939024 0 0 Z " fill="#000000" transform="translate(402,327)"/>
<path d="M0 0 C-1.35414433 3.17619956 -2.67328206 4.79060186 -5.51953125 6.7265625 C-6.21240234 7.2009375 -6.90527344 7.6753125 -7.61914062 8.1640625 C-8.34294922 8.64617187 -9.06675781 9.12828125 -9.8125 9.625 C-10.52470703 10.11484375 -11.23691406 10.6046875 -11.97070312 11.109375 C-15.57146113 13.54763111 -18.92810188 15.43328872 -23 17 C-23.33 17.66 -23.66 18.32 -24 19 C-25.99609375 20.2890625 -25.99609375 20.2890625 -28.4375 21.625 C-29.24058594 22.07101562 -30.04367187 22.51703125 -30.87109375 22.9765625 C-33 24 -33 24 -35 24 C-35.33 24.66 -35.66 25.32 -36 26 C-38.35636172 27.35740538 -40.70830065 28.63436618 -43.125 29.875 C-44.44065849 30.5588304 -45.75576525 31.24372336 -47.0703125 31.9296875 C-47.72032227 32.26709961 -48.37033203 32.60451172 -49.04003906 32.95214844 C-51.0130238 34.0069629 -52.93910785 35.12335402 -54.8671875 36.2578125 C-58 38 -58 38 -60 38 C-60.495 38.99 -60.495 38.99 -61 40 C-63.08959002 41.11099414 -65.22250316 42.14140873 -67.375 43.125 C-68.53773438 43.66382813 -69.70046875 44.20265625 -70.8984375 44.7578125 C-74 46 -74 46 -77 46 C-77.495 46.99 -77.495 46.99 -78 48 C-80.32288812 48.39310414 -82.61845176 48.50749695 -84.96875 48.65625 C-85.6390625 48.7696875 -86.309375 48.883125 -87 49 C-87.495 49.99 -87.495 49.99 -88 51 C-90.07398139 51.27199756 -92.15081587 51.53001189 -94.234375 51.71484375 C-99.19287004 52.22610101 -104.09114306 53.14448009 -109 54 C-91.9187704 65.68169198 -73.91350683 74.6082341 -52.80859375 70.84765625 C-42.21923227 68.49084451 -33.76038756 63.92256806 -24.8984375 57.890625 C-22 56 -22 56 -19 55 C-19 54.34 -19 53.68 -19 53 C-18.34 53 -17.68 53 -17 53 C-17 52.34 -17 51.68 -17 51 C-15.49609375 49.51953125 -15.49609375 49.51953125 -13.4375 47.8125 C-3.48224746 39.69346609 -3.48224746 39.69346609 3 29 C3.99 28.505 3.99 28.505 5 28 C5.33 27.01 5.66 26.02 6 25 C6.99 24.505 6.99 24.505 8 24 C8.33 23.01 8.66 22.02 9 21 C9.66 21 10.32 21 11 21 C11.309375 20.38125 11.61875 19.7625 11.9375 19.125 C12.625 17.75 13.3125 16.375 14 15 C14.66 15 15.32 15 16 15 C16.93496253 39.82844953 8.24507324 54.95262478 -8 73 C-8.64324219 73.73863281 -9.28648437 74.47726562 -9.94921875 75.23828125 C-26.04094291 92.6564382 -51.05704181 100.97053157 -74.25390625 102.16796875 C-89.36789587 102.50454752 -102.99854979 99.63404968 -117 94 C-118.216875 93.525625 -119.43375 93.05125 -120.6875 92.5625 C-133.08973956 86.712387 -144.54420785 79.89964177 -152 68 C-152 67.34 -152 66.68 -152 66 C-152.66 66 -153.32 66 -154 66 C-154.29769287 65.37432129 -154.59538574 64.74864258 -154.90209961 64.10400391 C-156.24703105 61.27757309 -157.59226183 58.45128484 -158.9375 55.625 C-159.40607422 54.64015625 -159.87464844 53.6553125 -160.35742188 52.640625 C-160.80537109 51.69960938 -161.25332031 50.75859375 -161.71484375 49.7890625 C-162.12855225 48.91975098 -162.54226074 48.05043945 -162.96850586 47.15478516 C-163.6341405 45.76427834 -164.31056854 44.37886292 -165 43 C-161.33929876 40.5595325 -159.54701406 40.74748746 -155.18359375 40.7265625 C-153.77896044 40.70979396 -152.374338 40.6920949 -150.96972656 40.67358398 C-149.86183777 40.66305496 -149.86183777 40.66305496 -148.73156738 40.65231323 C-98.01782599 40.04851396 -49.42975201 22.77793745 -4.125 0.92578125 C-2 0 -2 0 0 0 Z " fill="#000000" transform="translate(353,328)"/>
<path d="M0 0 C3.70698523 1.31983921 5.95912441 3.11264263 8.9140625 5.70703125 C9.43436035 6.15925049 9.9546582 6.61146973 10.49072266 7.07739258 C12.0140055 8.40408482 13.52675422 9.74284247 15.0390625 11.08203125 C15.8125 11.73300781 16.5859375 12.38398438 17.3828125 13.0546875 C25.20097731 19.65502279 30.43463488 26.90766868 35.4140625 35.83203125 C35.98133057 36.84700684 36.54859863 37.86198242 37.13305664 38.90771484 C56.17056361 73.54551408 66.40449979 115.49647669 55.62890625 154.3984375 C48.77943545 177.22721229 36.37501018 197.80903112 20.0390625 215.08203125 C18.88820389 216.43192971 17.74214319 217.78593746 16.6015625 219.14453125 C6.747682 230.33604259 -5.61782448 238.85328923 -17.9609375 247.08203125 C-19.2809375 247.08203125 -20.6009375 247.08203125 -21.9609375 247.08203125 C-20.52455355 242.7650303 -18.34835402 239.89465467 -15.3984375 236.45703125 C-12.04938526 232.62919487 -12.04938526 232.62919487 -9.9609375 228.08203125 C-9.3009375 227.75203125 -8.6409375 227.42203125 -7.9609375 227.08203125 C-7.6309375 226.09203125 -7.3009375 225.10203125 -6.9609375 224.08203125 C-6.23648438 223.36273438 -5.51203125 222.6434375 -4.765625 221.90234375 C-1.40292883 218.5209139 1.20587936 214.86798417 3.9140625 210.95703125 C4.44435059 210.19422852 4.97463867 209.43142578 5.52099609 208.64550781 C6.56869087 207.13213531 7.61323345 205.61657472 8.65429688 204.09863281 C9.76656008 202.4788701 10.89277122 200.86868933 12.0234375 199.26171875 C16.0786387 193.25615888 19.21774782 186.85027628 22.3515625 180.33203125 C22.78484863 179.43194336 23.21813477 178.53185547 23.66455078 177.60449219 C25.92041076 172.80800885 27.740448 168.21919744 29.0390625 163.08203125 C29.51531107 161.51863935 29.99420847 159.95605023 30.4765625 158.39453125 C40.66867589 124.45531104 34.38660519 99.04559816 18.0546875 68.62890625 C16.57324569 65.931064 14.89003821 63.54218884 13.0390625 61.08203125 C13.0390625 60.42203125 13.0390625 59.76203125 13.0390625 59.08203125 C12.0490625 58.58703125 12.0490625 58.58703125 11.0390625 58.08203125 C10.159834 56.79982302 9.33218388 55.48171455 8.5390625 54.14453125 C7.14024177 51.79468301 5.98372911 50.02669786 4.0390625 48.08203125 C2.5587198 46.08991293 1.11409267 44.07454732 -0.328125 42.0546875 C-2.05974966 39.96265292 -3.6329546 38.48338567 -5.9609375 37.08203125 C-9.0106884 37.76517848 -9.0106884 37.76517848 -11.9609375 39.08203125 C-13.105625 39.32953125 -13.105625 39.32953125 -14.2734375 39.58203125 C-14.8303125 39.74703125 -15.3871875 39.91203125 -15.9609375 40.08203125 C-16.2909375 40.74203125 -16.6209375 41.40203125 -16.9609375 42.08203125 C-19.234666 43.37324783 -21.50709571 44.58601685 -23.8359375 45.76953125 C-30.45980866 49.20819196 -36.74295911 52.94533045 -42.9609375 57.08203125 C-42.9609375 55.43203125 -42.9609375 53.78203125 -42.9609375 52.08203125 C-42.3009375 52.08203125 -41.6409375 52.08203125 -40.9609375 52.08203125 C-40.8165625 51.13328125 -40.6721875 50.18453125 -40.5234375 49.20703125 C-39.9609375 46.08203125 -39.9609375 46.08203125 -38.9609375 44.08203125 C-38.3009375 44.08203125 -37.6409375 44.08203125 -36.9609375 44.08203125 C-36.7134375 43.40140625 -36.4659375 42.72078125 -36.2109375 42.01953125 C-34.21379503 37.32624645 -32.26150568 33.35442045 -28.6171875 29.7890625 C-25.21863018 26.32553276 -22.73372192 22.5070249 -20.09179688 18.45898438 C-19.09480091 16.96775109 -18.03284211 15.52036298 -16.9609375 14.08203125 C-16.3009375 14.08203125 -15.6409375 14.08203125 -14.9609375 14.08203125 C-14.72890625 13.53160156 -14.496875 12.98117187 -14.2578125 12.4140625 C-12.60251351 9.43751582 -10.56246103 7.23150513 -8.2109375 4.76953125 C-7.37046875 3.86589844 -6.53 2.96226562 -5.6640625 2.03125 C-2.9609375 0.08203125 -2.9609375 0.08203125 0 0 Z " fill="#000000" transform="translate(489.9609375,0.91796875)"/>
<path d="M0 0 C3.82348008 1.4034161 6.19965616 3.98102628 8.953125 6.8671875 C9.81454102 7.75337769 9.81454102 7.75337769 10.69335938 8.6574707 C44.703125 44.05257253 44.703125 44.05257253 44.703125 57.9921875 C44.043125 57.9921875 43.383125 57.9921875 42.703125 57.9921875 C42.703125 57.3321875 42.703125 56.6721875 42.703125 55.9921875 C41.74921875 55.77691406 40.7953125 55.56164063 39.8125 55.33984375 C34.73711965 53.88955254 30.44369761 51.13999446 25.953125 48.4296875 C24.27225016 47.42600882 22.59001565 46.42460274 20.90625 45.42578125 C20.17051758 44.98290771 19.43478516 44.54003418 18.67675781 44.08374023 C16.59852341 42.8559771 16.59852341 42.8559771 13.703125 41.9921875 C13.703125 41.3321875 13.703125 40.6721875 13.703125 39.9921875 C9.50261306 40.22008211 7.25036716 40.53940511 3.96484375 43.2578125 C3.11535156 44.24265625 2.26585937 45.2275 1.390625 46.2421875 C0.92333984 46.78157959 0.45605469 47.32097168 -0.02539062 47.87670898 C-1.47117792 49.56468028 -2.88575705 51.27518709 -4.296875 52.9921875 C-5.13605469 53.98863281 -5.97523438 54.98507813 -6.83984375 56.01171875 C-27.90282221 82.09766504 -41.31904763 115.45882479 -38.07861328 149.26953125 C-35.26568051 170.82381399 -24.44726087 189.25237949 -11.6953125 206.375 C-8.2060184 211.06680786 -4.93398839 215.89087683 -1.671875 220.7421875 C2.74952323 227.31658527 7.36997644 233.62145483 12.54150391 239.62988281 C15.74767872 243.48972055 15.74767872 243.48972055 15.4921875 246.37109375 C15.23179687 246.90605469 14.97140625 247.44101563 14.703125 247.9921875 C13.40672122 247.39825368 12.11613661 246.79160761 10.828125 246.1796875 C10.10882813 245.84324219 9.38953125 245.50679687 8.6484375 245.16015625 C6.703125 243.9921875 6.703125 243.9921875 4.703125 240.9921875 C3.713125 240.6621875 2.723125 240.3321875 1.703125 239.9921875 C0.526921 238.86252395 -0.64268403 237.72488401 -1.77148438 236.54785156 C-3.54183737 234.74236352 -5.38668921 233.03747951 -7.25 231.328125 C-7.95125 230.68101562 -8.6525 230.03390625 -9.375 229.3671875 C-10.83526915 228.02247922 -12.29887421 226.6813854 -13.765625 225.34375 C-14.46171875 224.69921875 -15.1578125 224.0546875 -15.875 223.390625 C-16.50825195 222.80974121 -17.14150391 222.22885742 -17.79394531 221.63037109 C-19.296875 219.9921875 -19.296875 219.9921875 -20.296875 216.9921875 C-20.956875 216.9921875 -21.616875 216.9921875 -22.296875 216.9921875 C-24.09843043 214.9692288 -25.76915304 212.94491909 -27.421875 210.8046875 C-27.90889893 210.17916992 -28.39592285 209.55365234 -28.89770508 208.90917969 C-41.296875 192.71849445 -41.296875 192.71849445 -41.296875 187.9921875 C-41.956875 187.9921875 -42.616875 187.9921875 -43.296875 187.9921875 C-44.3012884 185.7023641 -45.30055112 183.4105276 -46.296875 181.1171875 C-46.72613281 180.14072266 -46.72613281 180.14072266 -47.1640625 179.14453125 C-49.296875 174.21875 -49.296875 174.21875 -49.296875 171.9921875 C-49.956875 171.6621875 -50.616875 171.3321875 -51.296875 170.9921875 C-52.04296875 169.2421875 -52.04296875 169.2421875 -52.734375 166.9921875 C-53.83564617 163.43147972 -53.83564617 163.43147972 -55.0859375 159.921875 C-59.19497262 149.00595341 -59.44862087 137.14569074 -59.984375 125.6171875 C-60.03287598 124.58770996 -60.08137695 123.55823242 -60.13134766 122.49755859 C-60.18814697 121.06017334 -60.18814697 121.06017334 -60.24609375 119.59375 C-60.28049561 118.73088379 -60.31489746 117.86801758 -60.3503418 116.97900391 C-60.296875 114.9921875 -60.296875 114.9921875 -59.296875 113.9921875 C-58.75184138 111.11891246 -58.2560893 108.25432694 -57.796875 105.3671875 C-57.60158203 104.17416016 -57.60158203 104.17416016 -57.40234375 102.95703125 C-56.64675954 98.30904352 -55.947063 93.65603602 -55.296875 88.9921875 C-54.636875 88.9921875 -53.976875 88.9921875 -53.296875 88.9921875 C-52.966875 85.6921875 -52.636875 82.3921875 -52.296875 78.9921875 C-51.636875 78.9921875 -50.976875 78.9921875 -50.296875 78.9921875 C-50.235 77.8784375 -50.173125 76.7646875 -50.109375 75.6171875 C-49.54394979 71.2236808 -47.97674461 67.93957584 -45.8984375 64.0625 C-44.6127816 61.59780357 -43.41818666 59.13337699 -42.2578125 56.609375 C-41.90340088 55.83907959 -41.54898926 55.06878418 -41.18383789 54.27514648 C-40.47341169 52.72434792 -39.76679937 51.17179593 -39.06420898 49.61743164 C-36.51695664 44.10222832 -36.51695664 44.10222832 -34.296875 42.9921875 C-33.62190418 41.32886654 -32.9572118 39.66137219 -32.296875 37.9921875 C-31.00325215 35.78410711 -29.68949834 33.63530844 -28.296875 31.4921875 C-27.90314697 30.88415283 -27.50941895 30.27611816 -27.10375977 29.6496582 C-7.60533082 -0.02586847 -7.60533082 -0.02586847 0 0 Z " fill="#000000" transform="translate(268.296875,0.0078125)"/>
<path d="M0 0 C27.96776009 1.11425339 58.16438007 18.97418872 77.43359375 38.3671875 C78.96164812 40.20406125 79.94932483 41.98118705 80.921875 44.15625 C74.22488548 42.59022393 68.37815102 40.53056268 62.2890625 37.34375 C58.60994683 35.49812102 54.86790756 34.30328867 50.921875 33.15625 C50.26590332 32.96530762 49.60993164 32.77436523 48.93408203 32.57763672 C33.6811438 27.80915181 33.6811438 27.80915181 17.921875 26.15625 C19.93442616 59.32328162 29.70104275 87.2430163 51.921875 112.15625 C52.51484375 112.88199219 53.1078125 113.60773438 53.71875 114.35546875 C68.51758694 132.41444551 91.15412509 145.03944065 110.72265625 157.13671875 C111.46467285 157.595625 112.20668945 158.05453125 112.97119141 158.52734375 C114.36483959 159.3853651 115.76152228 160.23848297 117.16162109 161.0859375 C121.81360227 163.93970455 121.81360227 163.93970455 122.921875 166.15625 C119.00159889 167.23675013 116.97261132 167.10274369 113.296875 165.40625 C109.64167534 163.82105909 106.09385 162.58648979 102.234375 161.59375 C97.88859113 160.45953123 93.94272561 159.16667531 89.921875 157.15625 C89.591875 156.49625 89.261875 155.83625 88.921875 155.15625 C88.07238281 155.02734375 87.22289062 154.8984375 86.34765625 154.765625 C82.12342349 154.01422214 78.88566582 152.37748459 75.109375 150.40625 C74.40232422 150.04426514 73.69527344 149.68228027 72.96679688 149.30932617 C67.89217792 146.69804096 62.8462988 144.04264494 57.921875 141.15625 C57.15746094 140.7128125 56.39304688 140.269375 55.60546875 139.8125 C51.35748806 137.27109938 51.35748806 137.27109938 49.921875 136.15625 C49.921875 135.49625 49.921875 134.83625 49.921875 134.15625 C48.271875 133.49625 46.621875 132.83625 44.921875 132.15625 C44.921875 131.49625 44.921875 130.83625 44.921875 130.15625 C44.0865625 129.79466797 44.0865625 129.79466797 43.234375 129.42578125 C40.42530158 127.8836379 38.29488551 125.99609947 35.921875 123.84375 C35.07625 123.08449219 34.230625 122.32523437 33.359375 121.54296875 C30.97819034 119.2113921 28.98292243 116.76995732 26.921875 114.15625 C26.25671875 113.49882812 25.5915625 112.84140625 24.90625 112.1640625 C22.70543722 109.93725587 20.96386521 107.59670607 19.171875 105.03125 C18.55828125 104.16242188 17.9446875 103.29359375 17.3125 102.3984375 C15.921875 100.15625 15.921875 100.15625 15.921875 98.15625 C15.261875 98.15625 14.601875 98.15625 13.921875 98.15625 C11.99759391 94.05561243 10.08388379 89.95012238 8.171875 85.84375 C7.63304688 84.69583984 7.09421875 83.54792969 6.5390625 82.36523438 C2.26158778 73.15823086 -1.72352265 64.0174846 -3.765625 54.03125 C-3.99636719 52.93554688 -4.22710937 51.83984375 -4.46484375 50.7109375 C-5.88644515 42.47108222 -6.41317829 34.1882271 -6.828125 25.84375 C-6.89644531 24.79251953 -6.96476562 23.74128906 -7.03515625 22.65820312 C-7.39892873 15.0702823 -6.49747379 8.37789773 -4.078125 1.15625 C-3.078125 0.15625 -3.078125 0.15625 0 0 Z " fill="#000000" transform="translate(112.078125,61.84375)"/>
<path d="M0 0 C1.81449328 8.96133256 2.35371129 17.61792552 2.3125 26.75 C2.31001251 27.41085602 2.30752502 28.07171204 2.30496216 28.75259399 C2.13895381 57.29525044 -7.192897 81.60446296 -26 103 C-26.71929688 103.85207031 -27.43859375 104.70414062 -28.1796875 105.58203125 C-32.92195309 111.07529619 -38.01498812 115.69816224 -43.71484375 120.1875 C-46.02559824 121.94920613 -46.02559824 121.94920613 -48 124 C-52.14353859 127.36605343 -55.94845912 130.16307605 -61 132 C-61.33 132.66 -61.66 133.32 -62 134 C-63.9433934 135.2650661 -65.92976113 136.46476089 -67.9375 137.625 C-69.01902344 138.25664062 -70.10054687 138.88828125 -71.21484375 139.5390625 C-74 141 -74 141 -76 141 C-76.33 141.66 -76.66 142.32 -77 143 C-78.61098653 143.93761121 -80.26411715 144.80391401 -81.9375 145.625 C-82.83339844 146.07101563 -83.72929688 146.51703125 -84.65234375 146.9765625 C-87 148 -87 148 -89 148 C-89.33 148.66 -89.66 149.32 -90 150 C-91.62646484 150.86962891 -91.62646484 150.86962891 -93.7109375 151.7265625 C-94.46117187 152.0359375 -95.21140625 152.3453125 -95.984375 152.6640625 C-96.77328125 152.98117188 -97.5621875 153.29828125 -98.375 153.625 C-99.15617188 153.94984375 -99.93734375 154.2746875 -100.7421875 154.609375 C-106.60825893 157 -106.60825893 157 -110 157 C-110.33 157.66 -110.66 158.32 -111 159 C-113.33333333 159.33333333 -115.66666667 159.66666667 -118 160 C-118.33 160.66 -118.66 161.32 -119 162 C-121.1796875 162.8515625 -121.1796875 162.8515625 -123.875 163.625 C-124.75929688 163.88539063 -125.64359375 164.14578125 -126.5546875 164.4140625 C-129 165 -129 165 -132 165 C-132.495 165.99 -132.495 165.99 -133 167 C-133.66 166.67 -134.32 166.34 -135 166 C-135 166.66 -135 167.32 -135 168 C-135.99 167.67 -136.98 167.34 -138 167 C-135.8963308 164.7320326 -133.86680562 163.21088431 -131.15625 161.73046875 C-130.4034375 161.31603516 -129.650625 160.90160156 -128.875 160.47460938 C-128.09125 160.04986328 -127.3075 159.62511719 -126.5 159.1875 C-125.37078125 158.5677832 -125.37078125 158.5677832 -124.21875 157.93554688 C-120.94585772 156.14153751 -117.67073603 154.35436286 -114.37060547 152.61083984 C-107.35036147 148.86964793 -100.72312418 144.68912445 -94.125 140.25 C-93.07795898 139.54842773 -92.03091797 138.84685547 -90.95214844 138.12402344 C-78.23118061 129.73456923 -78.23118061 129.73456923 -66.796875 119.734375 C-65 118 -65 118 -63 118 C-63 117.34 -63 116.68 -63 116 C-62.34 116 -61.68 116 -61 116 C-61 115.34 -61 114.68 -61 114 C-60.34 114 -59.68 114 -59 114 C-59 113.34 -59 112.68 -59 112 C-57.87331647 110.83917455 -56.73959949 109.68447114 -55.57421875 108.5625 C-53.72526842 106.72731357 -51.98359997 104.81949151 -50.25 102.875 C-49.65703125 102.21242188 -49.0640625 101.54984375 -48.453125 100.8671875 C-46.80100363 98.95816621 -46.80100363 98.95816621 -46 96 C-45.34 96 -44.68 96 -44 96 C-43.731875 95.319375 -43.46375 94.63875 -43.1875 93.9375 C-41.83946694 90.60289191 -40.42463702 87.30256763 -39 84 C-38.34 84 -37.68 84 -37 84 C-36.88398437 83.30003906 -36.76796875 82.60007812 -36.6484375 81.87890625 C-35.93730957 78.7216696 -34.84965872 75.93234724 -33.625 72.9375 C-30.39185069 64.67188349 -27.96155654 56.90606764 -28 48 C-27.67 47.67 -27.34 47.34 -27 47 C-26.92656468 44.34714903 -27.00370843 41.70765702 -27.0625 39.0546875 C-26.99259886 35.63826923 -26.53811537 32.37162915 -26 29 C-35.60144847 28.62753002 -44.25454436 29.33379589 -53.63671875 31.34375 C-57 32 -57 32 -61 32 C-61 32.66 -61 33.32 -61 34 C-62.03125 34.144375 -63.0625 34.28875 -64.125 34.4375 C-65.40375 34.623125 -66.6825 34.80875 -68 35 C-69.11375 35.144375 -70.2275 35.28875 -71.375 35.4375 C-72.24125 35.623125 -73.1075 35.80875 -74 36 C-74.495 36.99 -74.495 36.99 -75 38 C-77.32156597 38.40729228 -79.6568787 38.74438677 -82 39 C-75.07087073 22.23003287 -41.02444867 13.21495687 -25.71875 6.7265625 C-20.99261171 4.78288239 -16.25233702 2.88337167 -11.46875 1.0859375 C-10.34919922 0.66103027 -9.22964844 0.23612305 -8.07617188 -0.20166016 C-4.88367137 -1.03019005 -3.12247096 -0.93921482 0 0 Z " fill="#000000" transform="translate(656,63)"/>
<path d="M0 0 C0.99 0.33 1.98 0.66 3 1 C3.34177755 62.06776115 3.34177755 62.06776115 -8 74 C-8.68707031 74.73863281 -9.37414062 75.47726563 -10.08203125 76.23828125 C-20.38954656 86.40904677 -34.16604817 91.77929675 -48.4375 93.0625 C-50.08214829 93.21882556 -51.72668233 93.37635834 -53.37109375 93.53515625 C-54.15967773 93.61024414 -54.94826172 93.68533203 -55.76074219 93.76269531 C-57.75673898 93.97422048 -59.74482074 94.25761228 -61.73046875 94.55078125 C-64.82223173 94.97557545 -67.75732158 95.13363623 -70.875 95.125 C-72.29425781 95.12886719 -72.29425781 95.12886719 -73.7421875 95.1328125 C-76 95 -76 95 -77 94 C-78.56172745 93.91314397 -80.12729344 93.89297781 -81.69140625 93.90234375 C-82.63564453 93.90556641 -83.57988281 93.90878906 -84.55273438 93.91210938 C-86.04256836 93.92467773 -86.04256836 93.92467773 -87.5625 93.9375 C-88.55958984 93.94201172 -89.55667969 93.94652344 -90.58398438 93.95117188 C-93.05604849 93.96299993 -95.52799518 93.97948151 -98 94 C-98 92.68 -98 91.36 -98 90 C-95.91915482 88.7871997 -93.83609474 87.57872427 -91.75 86.375 C-91.11320313 86.00745605 -90.47640625 85.63991211 -89.8203125 85.26123047 C-85.94626235 83.04734972 -82.04033802 81.02505085 -78 79.125 C-72.39501799 76.40560172 -67.50990683 72.97701565 -62.54296875 69.25048828 C-58.18738921 66 -58.18738921 66 -56 66 C-56 65.34 -56 64.68 -56 64 C-54.01907924 62.63848219 -52.01504563 61.31048422 -50 60 C-48.09090773 58.4151919 -46.2153743 56.7891131 -44.375 55.125 C-43.45460938 54.30257812 -42.53421875 53.48015625 -41.5859375 52.6328125 C-38.94061615 49.93953971 -37.03022688 47.17168492 -35 44 C-32.65445195 41.53717454 -30.22186699 39.20954104 -27.75 36.875 C-25.77556277 35.02022825 -25.77556277 35.02022825 -25 32 C-23.68733482 30.64631404 -22.35432675 29.31200404 -21 28 C-20.67 27.34 -20.34 26.68 -20 26 C-19.34 26 -18.68 26 -18 26 C-17.67 24.68 -17.34 23.36 -17 22 C-16.34 22 -15.68 22 -15 22 C-14.67 20.68 -14.34 19.36 -14 18 C-13.34 18 -12.68 18 -12 18 C-11.64615234 17.21689453 -11.64615234 17.21689453 -11.28515625 16.41796875 C-9.58068848 13.21108258 -7.51854606 10.28119604 -5.4375 7.3125 C-5.02564453 6.71888672 -4.61378906 6.12527344 -4.18945312 5.51367188 C-1.14773261 1.14773261 -1.14773261 1.14773261 0 0 Z " fill="#000000" transform="translate(687,123)"/>
<path d="M0 0 C7.57229547 0.43806668 13.56720751 2.503151 20.5 5.5 C21.54285156 5.9419873 22.58570313 6.38397461 23.66015625 6.83935547 C32.71253919 10.73937751 41.41314822 15.16989587 50 20 C50.44535579 22.98434294 50.52549703 25.1578127 48.89404297 27.77246094 C47.30348664 29.70611927 45.6479174 31.54649453 43.9375 33.375 C43.33695801 34.03838379 42.73641602 34.70176758 42.11767578 35.38525391 C40.93661753 36.68989266 39.75057526 37.99004052 38.55908203 39.28515625 C36.7625977 41.26112023 35.06879874 43.31081283 33.375 45.375 C26.38163394 53.33535001 15.45284887 63.42699105 5 66 C4.67 66.66 4.34 67.32 4 68 C-2.23076923 71 -2.23076923 71 -6 71 C-6.33 71.66 -6.66 72.32 -7 73 C-9.00390625 73.78125 -9.00390625 73.78125 -11.5625 74.5 C-12.46742188 74.75523437 -13.37234375 75.01046875 -14.3046875 75.2734375 C-15.19414063 75.51320313 -16.08359375 75.75296875 -17 76 C-18.08667969 76.29777344 -18.08667969 76.29777344 -19.1953125 76.6015625 C-26.67176647 78.56596413 -33.89324057 79.1709479 -41.578125 79.23828125 C-42.4952124 79.24789383 -43.4122998 79.25750641 -44.35717773 79.26741028 C-47.32148968 79.292091 -50.28559729 79.30466779 -53.25 79.3125 C-54.25478394 79.31578308 -55.25956787 79.31906616 -56.2947998 79.32244873 C-90.2265513 79.35836897 -90.2265513 79.35836897 -104 75 C-104.33 74.34 -104.66 73.68 -105 73 C-107.32156597 72.59270772 -109.6568787 72.25561323 -112 72 C-112 71.01 -112 70.02 -112 69 C-111.0298999 68.93006836 -110.0597998 68.86013672 -109.06030273 68.78808594 C-64.44650378 65.5261838 -9.72752076 60.2856764 21.75 23.9375 C22.86375 22.4834375 22.86375 22.4834375 24 21 C23.34 21 22.68 21 22 21 C20.97469597 20.02596117 19.98230498 19.0173873 19 18 C17.58632932 16.81646176 16.17145337 15.63427845 14.74609375 14.46484375 C12.08026993 12.22841437 9.50871599 9.88640745 6.9296875 7.55078125 C5.06852551 5.91733733 5.06852551 5.91733733 2.8203125 5.04296875 C1 4 1 4 0.38623047 1.93481445 C0.19504639 0.9770813 0.19504639 0.9770813 0 0 Z " fill="#000000" transform="translate(703,295)"/>
<path d="M0 0 C-0.09615684 2.64912089 -0.4553875 4.42848057 -2.31445312 6.37939453 C-4.08573412 7.83733488 -5.89686071 9.21015847 -7.75 10.5625 C-8.99481245 11.50127453 -10.23960446 12.44007615 -11.484375 13.37890625 C-12.08056641 13.82121582 -12.67675781 14.26352539 -13.29101562 14.71923828 C-15.56992324 16.42711676 -17.7883789 18.20622335 -20 20 C-18.48463038 24.57812372 -14.69617946 26.64139679 -10.875 29.1875 C-10.16432373 29.66727295 -9.45364746 30.1470459 -8.72143555 30.64135742 C24.26902391 52.59746525 60.79341152 61.62418124 99.87670898 65.11401367 C100.89708252 65.20658447 101.91745605 65.29915527 102.96875 65.39453125 C103.84982422 65.46518799 104.73089844 65.53584473 105.63867188 65.60864258 C108.09626213 66.01595411 109.8470398 66.77102895 112 68 C89.06989553 80.61155746 51.64744892 77.09568465 26.96923828 72.36376953 C23.99144531 71.81369372 21.00035928 71.40716338 18 71 C18 70.34 18 69.68 18 69 C16.63875 68.9071875 16.63875 68.9071875 15.25 68.8125 C-9.07423004 65.16386549 -34.21441746 42.61053245 -49.453125 24.5078125 C-51.17731203 21.71253958 -51.34641359 20.22164639 -51 17 C-36.7082439 9.06981826 -16.61164521 0 0 0 Z " fill="#000000" transform="translate(51,298)"/>
<path d="M0 0 C3.22086726 0.24490465 4.08598447 1.09429145 6.3046875 3.52734375 C7.1714173 4.65648733 8.02744819 5.79389093 8.875 6.9375 C9.85285503 8.21745522 10.8307201 9.49740276 11.80859375 10.77734375 C12.32534668 11.4616748 12.84209961 12.14600586 13.37451172 12.85107422 C16.20154183 16.58846068 19.06714559 20.29583271 21.9375 24 C22.52877686 24.76328613 23.12005371 25.52657227 23.72924805 26.31298828 C28.81060192 32.83395492 34.1332614 39.11160453 39.56640625 45.33984375 C41.50265689 47.58209586 43.39466942 49.85987573 45.28881836 52.13769531 C57.49584445 66.75459163 71.21291793 77.65180269 87.97265625 86.6953125 C88.64167969 87.12585938 89.31070313 87.55640625 90 88 C90 88.66 90 89.32 90 90 C70.28206591 90.42348116 51.29360545 90.75965597 32 86 C32 85.34 32 84.68 32 84 C31.13117188 83.89816406 30.26234375 83.79632813 29.3671875 83.69140625 C25.77915302 82.95465207 23.29160378 81.75250461 20.125 79.9375 C19.15820312 79.38964844 18.19140625 78.84179688 17.1953125 78.27734375 C16.47085938 77.85582031 15.74640625 77.43429688 15 77 C15 76.34 15 75.68 15 75 C14.40316406 74.73960937 13.80632812 74.47921875 13.19140625 74.2109375 C10.85586831 72.92035504 9.61823868 71.67774218 7.9375 69.625 C7.42445312 68.99980469 6.91140625 68.37460938 6.3828125 67.73046875 C5.92648438 67.15941406 5.47015625 66.58835937 5 66 C4.443125 65.319375 3.88625 64.63875 3.3125 63.9375 C-2.27670423 55.68676995 -4.19901125 46.31334269 -4.1875 36.5 C-4.1862915 35.41078247 -4.1862915 35.41078247 -4.18505859 34.29956055 C-4.11860696 28.11108912 -3.68940913 21.97401131 -3.125 15.8125 C-3.04660889 14.92820313 -2.96821777 14.04390625 -2.88745117 13.1328125 C-2.42445664 8.49487687 -1.7060477 4.37981152 0 0 Z " fill="#000000" transform="translate(76,125)"/>
<path d="" fill="#000000" transform="translate(0,0)"/>
<path d="" fill="#000000" transform="translate(0,0)"/>
<path d="" fill="#000000" transform="translate(0,0)"/>
<path d="" fill="#000000" transform="translate(0,0)"/>
<path d="" fill="#000000" transform="translate(0,0)"/>
<path d="" fill="#000000" transform="translate(0,0)"/>
<path d="" fill="#000000" transform="translate(0,0)"/>
<path d="" fill="#000000" transform="translate(0,0)"/>
</svg>
